<svg width="21" height="26" viewBox="0 0 21 26" fill="none" xmlns="http://www.w3.org/2000/svg">
<path d="M10.5192 5.42957C6.95389 5.42957 4.04102 8.34244 4.04102 11.9078C4.04102 13.772 4.85662 15.5664 6.23149 16.7781C7.25683 17.8034 7.16361 19.9939 7.14031 20.0172C7.14031 20.1337 7.16361 20.227 7.25683 20.3202C7.32673 20.3901 7.44325 20.4367 7.53646 20.4367H13.4787C13.5952 20.4367 13.6884 20.3901 13.7584 20.3202C13.8283 20.2503 13.8749 20.1337 13.8749 20.0172C13.8749 19.9939 13.7584 17.8034 14.7837 16.7781C14.807 16.7548 14.8303 16.7315 14.8536 16.7082C16.2052 15.4731 16.9975 13.7254 16.9975 11.9078C16.9975 8.34244 14.0846 5.42957 10.5192 5.42957ZM14.2477 16.1722C14.2244 16.1955 14.1778 16.2421 14.1778 16.2654C13.269 17.2442 13.1059 18.8521 13.0826 19.6211H7.93261C7.90931 18.8521 7.74619 17.1743 6.76746 16.1722C5.53241 15.1003 4.81001 13.539 4.81001 11.8845C4.81001 8.73859 7.35004 6.19856 10.4959 6.19856C13.6418 6.19856 16.1819 8.73859 16.1819 11.8845C16.1819 13.539 15.4828 15.1003 14.2477 16.1722Z" fill="#012970"/>
<path d="M10.4958 7.08411C10.286 7.08411 10.0996 7.27053 10.0996 7.48026C10.0996 7.68998 10.286 7.87641 10.4958 7.87641C12.8494 7.87641 14.7369 9.78725 14.7369 12.1175C14.7369 12.3273 14.9233 12.5137 15.1331 12.5137C15.3428 12.5137 15.5292 12.3273 15.5292 12.1175C15.5525 9.34449 13.2921 7.08411 10.4958 7.08411Z" fill="#012970"/>
<path d="M13.0826 20.8795H7.90939C7.37342 20.8795 6.93066 21.3223 6.93066 21.8582C6.93066 22.3942 7.37342 22.837 7.90939 22.837H13.0593C13.6186 22.8137 14.0614 22.3942 14.0614 21.8582C14.0614 21.3223 13.6186 20.8795 13.0826 20.8795ZM13.0826 22.0214H7.90939C7.81618 22.0214 7.72297 21.9515 7.72297 21.8349C7.72297 21.7184 7.79287 21.6485 7.90939 21.6485H13.0593C13.1526 21.6485 13.2458 21.7184 13.2458 21.8349C13.2458 21.9515 13.1759 22.0214 13.0826 22.0214Z" fill="#012970"/>
<path d="M12.3137 23.233H8.67843C8.14246 23.233 7.69971 23.6758 7.69971 24.2118C7.69971 24.7477 8.14246 25.1905 8.67843 25.1905H12.3137C12.8497 25.1905 13.2924 24.7477 13.2924 24.2118C13.2924 23.6525 12.8497 23.233 12.3137 23.233ZM12.3137 24.3749H8.67843C8.58522 24.3749 8.49201 24.305 8.49201 24.1885C8.49201 24.0719 8.56192 24.002 8.67843 24.002H12.3137C12.4069 24.002 12.5001 24.0719 12.5001 24.1885C12.5001 24.305 12.4069 24.3749 12.3137 24.3749Z" fill="#012970"/>
<path d="M10.4958 3.49545C10.7288 3.49545 10.8919 3.30902 10.8919 3.0993V0.396151C10.8919 0.186424 10.7055 0 10.4958 0C10.286 0 10.0996 0.186424 10.0996 0.396151V3.0993C10.0996 3.30902 10.286 3.49545 10.4958 3.49545Z" fill="#012970"/>
<path d="M17.0906 2.00404C16.9042 1.86423 16.6711 1.93413 16.5546 2.09726L15.0632 4.33434C14.9234 4.52076 14.97 4.7771 15.1564 4.89361C15.2264 4.94022 15.2963 4.96352 15.3662 4.96352C15.506 4.96352 15.6225 4.89361 15.6924 4.7771L17.1838 2.54001C17.3236 2.37689 17.277 2.12056 17.0906 2.00404Z" fill="#012970"/>
<path d="M5.76557 4.87027C5.83548 4.87027 5.90539 4.84696 5.97529 4.80036C6.16172 4.68384 6.20832 4.42751 6.09181 4.24109L4.64702 1.9807C4.53051 1.79427 4.27418 1.74767 4.08775 1.86418C3.90133 1.9807 3.85472 2.23703 3.97124 2.42345L5.41602 4.68384C5.50923 4.82366 5.62575 4.87027 5.76557 4.87027Z" fill="#012970"/>
<path d="M2.9457 7.34047L0.592098 6.05881C0.405674 5.9656 0.149341 6.0355 0.0561292 6.22193C-0.0603857 6.40835 0.00952318 6.66468 0.21925 6.7579L2.57285 8.03956C2.64276 8.06286 2.68936 8.08617 2.75927 8.08617C2.89909 8.08617 3.03891 8.01626 3.10882 7.87644C3.20203 7.69002 3.13212 7.43368 2.9457 7.34047Z" fill="#012970"/>
<path d="M20.9589 6.22193C20.8657 6.0355 20.6094 5.9656 20.4229 6.05881L18.046 7.34047C17.8596 7.43368 17.7897 7.69002 17.8829 7.87644C17.9528 8.01626 18.0926 8.08617 18.2324 8.08617C18.3024 8.08617 18.3723 8.06286 18.4189 8.03956L20.7958 6.7579C20.9822 6.66468 21.0521 6.40835 20.9589 6.22193Z" fill="#012970"/>
</svg>
